# xmcd CD database file
#
# Track frame offsets:
#	150
#	23194
#	48415
#	74561
#	97238
#	127205
#	152266
#	171350
#	196529
#	227509
#	248970
#	276711
#
# Disc length: 3854 seconds
#
# Revision: 0
# Processed by: cddbd v1.5.1PL2 Copyright (c) Steve Scherf et al.
# Submitted via: CDex 1.70beta1
#
DISCID=ad0f0c0c
DTITLE=Bill Watrous, Pete Christlieb and The Gary Urwin Jazz Orchestra - Kindred Spirits
DYEAR=2006
DGENRE=Jazz
TTITLE0=Lester Leaps In
TTITLE1=Theme From Chinatown
TTITLE2=Girl Talk
TTITLE3=Beautiful Love
TTITLE4=My Foolish Heart
TTITLE5=Kindred Spirits
TTITLE6=Danny Boy
TTITLE7=E.S.P.
TTITLE8=That Old Feeling
TTITLE9=My Ship
TTITLE10=No More Blues
TTITLE11=I'll Be Seeing You
EXTD=YEAR: 2006
EXTT0=
EXTT1=
EXTT2=
EXTT3=
EXTT4=
EXTT5=
EXTT6=
EXTT7=
EXTT8=
EXTT9=
EXTT10=
EXTT11=
PLAYORDER=
